  0
SECTION
  2
HEADER
  9
$ACADVER
  1
AC1009
  9
$EXTMAX
 10
1692.66625976563
 20
1868.89575195313
 30
0.0
  9
$EXTMIN
 10
-226.756408691406
 20
-60.6781616210938
 30
0.0
  9
$INSUNITS
 70
     4
  9
$LUNITS
 70
     2
  9
$LUPREC
 70
     4
  9
$MEASUREMENT
 70
     1
  0
ENDSEC
  0
SECTION
  2
TABLES
  0
TABLE
  2
LAYER
 70
     1
  0
LAYER
  2
0
 70
     0
 62
     7
  6
Continuous
  0
LAYER
  2
Default
 70
     0
 62
    14
  6
Continuous
  0
ENDTAB
  0
TABLE
  2
APPID
 70
     1
  0
APPID
  2
ACAD
 70
     0
  0
ENDTAB
  0
ENDSEC
  0
SECTION
  2
ENTITIES
  0
LINE
  8
Default
 10
1453.86931023646
 20
963.997992574884
 30
15.0000000000009
 11
1454.92393470908
 21
963.153846511554
 31
15.0000000000009
  0
LINE
  8
Default
 10
582.432804250468
 20
1020.985677469
 30
15.0000000000009
 11
580.457147518878
 21
1036.80203322009
 31
15.0000000000009
  0
LINE
  8
Default
 10
1479.7657264382
 20
938.312054782422
 30
15.0000000000009
 11
1482.1180798121
 21
935.269327676669
 31
15.0000000000009
  0
LINE
  8
Default
 10
1391.44631551359
 20
984.329256550064
 30
15.0000000000009
 11
1404.58386300171
 21
983.428221886664
 31
15.0000000000009
  0
LINE
  8
Default
 10
855.243655460785
 20
751.940360885501
 30
15.0000000000009
 11
845.479079194574
 21
755.118406374593
 31
15.0000000000009
  0
LINE
  8
Default
 10
366.57586541715
 20
1868.89571680583
 30
15.0000000000009
 11
356.744244923196
 21
1868.64514040471
 31
15.0000000000009
  0
LINE
  8
Default
 10
838.212699300214
 20
757.483371859596
 30
15.0000000000009
 11
821.781859500289
 21
764.812626892345
 31
15.0000000000009
  0
LINE
  8
Default
 10
598.645979644904
 20
1111.65280111947
 30
15.0000000000009
 11
607.530091262045
 21
1124.26615155288
 31
15.0000000000009
  0
LINE
  8
Default
 10
356.744244923196
 20
1868.64514040471
 30
15.0000000000009
 11
347.049278406026
 21
1867.37069200767
 31
15.0000000000009
  0
LINE
  8
Default
 10
405.139725899288
 20
1859.77121906293
 30
15.0000000000009
 11
395.824573068677
 21
1863.53259765062
 31
15.0000000000009
  0
LINE
  8
Default
 10
907.900810978182
 20
746.574615118515
 30
15.0000000000009
 11
890.29509272293
 21
746.453519682441
 31
15.0000000000009
  0
LINE
  8
Default
 10
1680.47871237228
 20
484.635001898804
 30
15.0000000000009
 11
1685.74190986719
 21
497.158815311282
 31
15.0000000000009
  0
LINE
  8
Default
 10
586.276795216582
 20
1005.41372606219
 30
15.0000000000009
 11
582.432804250468
 21
1020.985677469
 31
15.0000000000009
  0
LINE
  8
Default
 10
761.375487390715
 20
1644.64053598393
 30
15.0000000000009
 11
774.178088970261
 21
1630.42257684557
 31
15.0000000000009
  0
LINE
  8
Default
 10
785.142049064159
 20
1614.78063641019
 30
15.0000000000009
 11
794.086542922553
 21
1597.97269171731
 31
15.0000000000009
  0
LINE
  8
Default
 10
774.178088970261
 20
1630.42257684557
 30
15.0000000000009
 11
785.142049064159
 21
1614.78063641019
 31
15.0000000000009
  0
LINE
  8
Default
 10
1353.34804398492
 20
977.209923479846
 30
15.0000000000009
 11
1365.62496923929
 21
981.195416992491
 31
15.0000000000009
  0
LINE
  8
Default
 10
414.066995749028
 20
1855.08214894099
 30
15.0000000000009
 11
731.125796717623
 21
1667.8938957242
 31
15.0000000000009
  0
LINE
  8
Default
 10
1365.62496923929
 20
981.195416992491
 30
15.0000000000009
 11
1378.39144796814
 21
983.581058402388
 31
15.0000000000009
  0
LINE
  8
Default
 10
807.266019102431
 20
1524.81585609355
 30
15.0000000000009
 11
804.639105893547
 21
1506.55607860927
 31
15.0000000000009
  0
LINE
  8
Default
 10
608.337119311294
 20
962.365778334386
 30
15.0000000000009
 11
599.322711203058
 21
975.891606776256
 31
15.0000000000009
  0
LINE
  8
Default
 10
804.639105893547
 20
1506.55607860927
 30
15.0000000000009
 11
799.671168326556
 21
1488.91520655572
 31
15.0000000000009
  0
LINE
  8
Default
 10
799.671168326556
 20
1488.91520655572
 30
15.0000000000009
 11
792.444140853976
 21
1472.18418465078
 31
15.0000000000009
  0
LINE
  8
Default
 10
1689.65889393082
 20
565.251226647392
 30
15.0000000000009
 11
1685.89528409743
 21
578.796076835173
 31
15.0000000000009
  0
LINE
  8
Default
 10
805.362797645632
 20
1561.98227832753
 30
15.0000000000009
 11
807.508583194634
 21
1543.39338690041
 31
15.0000000000009
  0
LINE
  8
Default
 10
347.049278406026
 20
1867.37069200767
 30
15.0000000000009
 11
337.596045268481
 21
1865.08618479049
 31
15.0000000000009
  0
LINE
  8
Default
 10
731.125796717623
 20
1667.8938957242
 30
15.0000000000009
 11
746.945393144766
 21
1657.20002201003
 31
15.0000000000009
  0
LINE
  8
Default
 10
974.049778716345
 20
765.859954232797
 30
15.0000000000009
 11
958.553361108508
 21
758.31109752846
 31
15.0000000000009
  0
LINE
  8
Default
 10
1472.71736223266
 20
-60.6781597539742
 30
15.0000000000009
 11
572.717362232661
 21
-60.6781597539786
 31
15.0000000000009
  0
LINE
  8
Default
 10
1442.43549499347
 20
971.099887987718
 30
15.0000000000009
 11
1453.86931023646
 21
963.997992574884
 31
15.0000000000009
  0
LINE
  8
Default
 10
1689.55559072577
 20
510.265517813783
 30
15.0000000000009
 11
1691.8731317121
 21
523.794876574654
 31
15.0000000000009
  0
LINE
  8
Default
 10
807.508583194634
 20
1543.39338690041
 30
15.0000000000009
 11
807.266019102431
 21
1524.81585609355
 31
15.0000000000009
  0
LINE
  8
Default
 10
942.233071593827
 20
752.538690424085
 30
15.0000000000009
 11
925.282027780608
 21
748.611037679411
 31
15.0000000000009
  0
LINE
  8
Default
 10
1404.58386300171
 20
983.428221886664
 30
15.0000000000009
 11
1417.59707874965
 21
980.89215224496
 31
15.0000000000009
  0
LINE
  8
Default
 10
395.824573068677
 20
1863.53259765062
 30
15.0000000000009
 11
386.22250002949
 21
1866.32551680506
 31
15.0000000000009
  0
LINE
  8
Default
 10
1692.66620028759
 20
537.581491680034
 30
15.0000000000009
 11
1691.92510098353
 21
551.456818190676
 31
15.0000000000009
  0
LINE
  8
Default
 10
580.457147518878
 20
1036.80203322009
 30
15.0000000000009
 11
580.378222341718
 21
1052.63545518185
 31
15.0000000000009
  0
LINE
  8
Default
 10
337.596045268481
 20
1865.08618479049
 30
15.0000000000009
 11
328.487004873494
 21
1861.81637950439
 31
15.0000000000009
  0
LINE
  8
Default
 10
1674.0776441464
 20
604.479820488259
 30
15.0000000000009
 11
1482.1180798121
 21
935.269327676669
 31
15.0000000000009
  0
LINE
  8
Default
 10
414.066995749028
 20
1855.08214894099
 30
15.0000000000009
 11
405.139725899288
 21
1859.77121906293
 31
15.0000000000009
  0
LINE
  8
Default
 10
376.437579353744
 20
1868.11970532558
 30
15.0000000000009
 11
366.57586541715
 21
1868.89571680583
 31
15.0000000000009
  0
LINE
  8
Default
 10
746.945393144766
 20
1657.20002201003
 30
15.0000000000009
 11
761.375487390715
 21
1644.64053598393
 31
15.0000000000009
  0
LINE
  8
Default
 10
845.479079194574
 20
755.118406374593
 30
15.0000000000009
 11
838.212699300214
 21
757.483371859596
 31
15.0000000000009
  0
LINE
  8
Default
 10
872.673201071698
 20
748.249184290697
 30
15.0000000000009
 11
855.243655460785
 21
751.940360885501
 31
15.0000000000009
  0
LINE
  8
Default
 10
1685.89528409743
 20
578.796076835173
 30
15.0000000000009
 11
1680.68028258806
 21
591.925779453468
 31
15.0000000000009
  0
LINE
  8
Default
 10
1691.8731317121
 20
523.794876574654
 30
15.0000000000009
 11
1692.66620028759
 21
537.581491680034
 31
15.0000000000009
  0
LINE
  8
Default
 10
538.436258972591
 20
271.89387774012
 30
15.0000000000009
 11
815.925016365677
 21
559.807195905929
 31
15.0000000000009
  0
LINE
  8
Default
 10
591.933868389147
 20
990.310004160475
 30
15.0000000000009
 11
586.276795216582
 21
1005.41372606219
 31
15.0000000000009
  0
LINE
  8
Default
 10
599.322711203058
 20
975.891606776256
 30
15.0000000000009
 11
591.933868389147
 21
990.310004160475
 31
15.0000000000009
  0
LINE
  8
Default
 10
538.436258972591
 20
271.89387774012
 30
15.0000000000009
 11
130.904010054166
 21
664.670488667363
 31
15.0000000000009
  0
LINE
  8
Default
 10
514.098011489753
 20
850.705863130707
 30
15.0000000000009
 11
408.392767447253
 21
952.583806833172
 31
15.0000000000009
  0
LINE
  8
Default
 10
1680.68028258806
 20
591.925779453468
 30
15.0000000000009
 11
1674.0776441464
 21
604.479820488259
 31
15.0000000000009
  0
LINE
  8
Default
 10
607.530091262045
 20
1124.26615155288
 30
15.0000000000009
 11
210.169587713277
 21
1335.46423451621
 31
15.0000000000009
  0
LINE
  8
Default
 10
210.169587713277
 20
1335.46423451621
 30
15.0000000000009
 11
395.081157620948
 21
1683.37760205802
 31
15.0000000000009
  0
LINE
  8
Default
 10
684.307357967097
 20
686.659335684252
 30
15.0000000000009
 11
777.98509736112
 21
796.551299756787
 31
15.0000000000009
  0
LINE
  8
Default
 10
1561.56168009099
 20
579.023860976843
 30
15.0000000000011
 11
1193.85055765191
 21
373.192642658075
 31
15.0000000000011
  0
LINE
  8
Default
 10
1193.85055765191
 20
373.192642658075
 30
15.0000000000011
 11
974.049778716345
 21
765.859954232797
 31
15.0000000000009
  0
LINE
  8
Default
 10
514.098011489753
 20
850.705863130707
 30
15.0000000000009
 11
618.8475231248
 21
949.926933821605
 31
15.0000000000009
  0
LINE
  8
Default
 10
395.081157620948
 20
1683.37760205802
 30
15.0000000000009
 11
792.444140853976
 21
1472.18418465078
 31
15.0000000000009
  0
LINE
  8
Default
 10
1341.75412284408
 20
971.687378301141
 30
15.0000000000009
 11
1561.56168009099
 21
579.023860976843
 31
15.0000000000011
  0
LINE
  8
Default
 10
514.012757073608
 20
850.625108248713
 30
15.0000000000009
 11
514.098011489753
 21
850.705863130707
 31
15.0000000000009
  0
LINE
  8
Default
 10
806.145561808283
 20
773.841399078481
 30
15.0000000000009
 11
791.488830173093
 21
784.46285116558
 31
15.0000000000009
  0
LINE
  8
Default
 10
1473.86816617991
 20
945.940443720435
 30
15.0000000000009
 11
1479.7657264382
 21
938.312054782422
 31
15.0000000000009
  0
LINE
  8
Default
 10
800.864052144174
 20
1580.27595030589
 30
15.0000000000009
 11
805.362797645632
 21
1561.98227832753
 31
15.0000000000009
  0
LINE
  8
Default
 10
1341.75412284408
 20
971.687378301141
 30
15.0000000000009
 11
1353.34804398492
 21
977.209923479846
 31
15.0000000000009
  0
LINE
  8
Default
 10
1472.71736223266
 20
-60.6781597539742
 30
15.0000000000009
 11
1680.47871237228
 21
484.635001898804
 31
15.0000000000009
  0
LINE
  8
Default
 10
890.29509272293
 20
746.453519682441
 30
15.0000000000009
 11
872.673201071698
 21
748.249184290697
 31
15.0000000000009
  0
LINE
  8
Default
 10
1464.40219039063
 20
955.567229257276
 30
15.0000000000009
 11
1473.86816617991
 21
945.940443720435
 31
15.0000000000009
  0
LINE
  8
Default
 10
618.8475231248
 20
949.926933821605
 30
15.0000000000009
 11
608.337119311294
 21
962.365778334386
 31
15.0000000000009
  0
LINE
  8
Default
 10
791.488830173093
 20
784.46285116558
 30
15.0000000000009
 11
777.98509736112
 21
796.551299756787
 31
15.0000000000009
  0
LINE
  8
Default
 10
582.197163158722
 20
1068.2583599176
 30
15.0000000000009
 11
585.88782522347
 21
1083.44618988322
 31
15.0000000000009
  0
LINE
  8
Default
 10
580.378222341718
 20
1052.63545518185
 30
15.0000000000009
 11
582.197163158722
 21
1068.2583599176
 31
15.0000000000009
  0
LINE
  8
Default
 10
-226.756411405133
 20
1638.79561388382
 30
15.0000000000009
 11
328.487004873494
 21
1861.81637950439
 31
15.0000000000009
  0
LINE
  8
Default
 10
1685.74190986719
 20
497.158815311282
 30
15.0000000000009
 11
1689.55559072577
 21
510.265517813783
 31
15.0000000000009
  0
LINE
  8
Default
 10
925.282027780608
 20
748.611037679411
 30
15.0000000000009
 11
907.900810978182
 21
746.574615118515
 31
15.0000000000009
  0
LINE
  8
Default
 10
1430.28091020146
 20
976.761009120411
 30
15.0000000000009
 11
1442.43549499347
 21
971.099887987718
 31
15.0000000000009
  0
LINE
  8
Default
 10
591.397160397754
 20
1097.9806411298
 30
15.0000000000009
 11
598.645979644904
 21
1111.65280111947
 31
15.0000000000009
  0
LINE
  8
Default
 10
1454.92393470908
 20
963.153846511554
 30
15.0000000000009
 11
1464.40219039063
 21
955.567229257276
 31
15.0000000000009
  0
LINE
  8
Default
 10
-226.756411405133
 20
1638.79561388382
 30
15.0000000000009
 11
-226.756411405126
 21
738.795613883821
 31
15.0000000000009
  0
LINE
  8
Default
 10
815.925016365677
 20
559.807195905929
 30
15.0000000000009
 11
684.307357967097
 21
686.659335684252
 31
15.0000000000009
  0
LINE
  8
Default
 10
386.22250002949
 20
1866.32551680506
 30
15.0000000000009
 11
376.437579353744
 21
1868.11970532558
 31
15.0000000000009
  0
LINE
  8
Default
 10
821.781859500289
 20
764.812626892345
 30
15.0000000000009
 11
806.145561808283
 21
773.841399078481
 31
15.0000000000009
  0
LINE
  8
Default
 10
408.392767447253
 20
952.583806833172
 30
15.0000000000009
 11
130.904010054166
 21
664.670488667363
 31
15.0000000000009
  0
LINE
  8
Default
 10
1378.39144796814
 20
983.581058402388
 30
15.0000000000009
 11
1391.44631551359
 21
984.329256550064
 31
15.0000000000009
  0
LINE
  8
Default
 10
958.553361108508
 20
758.31109752846
 30
15.0000000000009
 11
942.233071593827
 21
752.538690424085
 31
15.0000000000009
  0
LINE
  8
Default
 10
585.88782522347
 20
1083.44618988322
 30
15.0000000000009
 11
591.397160397754
 21
1097.9806411298
 31
15.0000000000009
  0
LINE
  8
Default
 10
794.086542922553
 20
1597.97269171731
 30
15.0000000000009
 11
800.864052144174
 21
1580.27595030589
 31
15.0000000000009
  0
LINE
  8
Default
 10
-226.756411405126
 20
738.795613883821
 30
15.0000000000009
 11
572.717362232661
 21
-60.6781597539786
 31
15.0000000000009
  0
LINE
  8
Default
 10
1417.59707874965
 20
980.89215224496
 30
15.0000000000009
 11
1430.28091020146
 21
976.761009120411
 31
15.0000000000009
  0
LINE
  8
Default
 10
1691.92510098353
 20
551.456818190676
 30
15.0000000000009
 11
1689.65889393082
 21
565.251226647392
 31
15.0000000000009
  0
ENDSEC
  0
EOF
